<?xml version="1.0"?>
<svg viewBox="0 0 70 60" xmlns="http://www.w3.org/2000/svg" xmlns:svg="http://www.w3.org/2000/svg">
 <!-- Created with SVG-edit - https://github.com/SVG-Edit/svgedit-->
 <g class="layer" display="inline">
  <title>Layer 1</title>
  <g id="svg_21" transform="translate(1 0) translate(0 1) translate(0 -1.03) translate(-2.53 0) translate(2.25 0) translate(-1.5 -0.25) matrix(0.42085 0 0 0.42085 2.77746 1.43587)">
   <rect fill="#f2f2f2" fill-opacity="0" height="105" id="svg_1" rx="2" ry="2" stroke="#d1d1d1" stroke-width="1.5" transform="matrix(1.07899 0 0 1.26479 -10.298 -5.74635) matrix(1 0 0 1 0 1.58129)" width="80" x="42" y="4.54"/>
   <rect fill="#f2f2f2" fill-opacity="0" height="30" id="svg_10" rx="2" ry="2" stroke="#d1d1d1" transform="matrix(1.07899 0 0 1.26479 -10.298 -5.74635) matrix(1 0 0 1 0 1.58129)" width="25" x="17" y="21"/>
   <rect fill="#f2f2f2" fill-opacity="0" height="31" id="svg_9" rx="3" ry="3" stroke="#d1d1d1" transform="matrix(1.07899 0 0 1.26479 -10.298 -5.74635) matrix(1 0 0 1 0 1.58129)" width="7" x="10" y="20.5"/>
   <rect fill="#f2f2f2" fill-opacity="0" height="30" id="svg_12" rx="2" ry="2" stroke="#d1d1d1" transform="matrix(1.07899 0 0 1.26479 -10.298 -5.74635) matrix(1 0 0 1 0 1.58129)" width="25" x="16.54" y="64"/>
   <rect fill="#f2f2f2" fill-opacity="0" height="31" id="svg_11" rx="3" ry="3" stroke="#d1d1d1" transform="matrix(1.07899 0 0 1.26479 -10.298 -5.74635) matrix(1 0 0 1 0 1.58129)" width="7" x="9.54" y="63.5"/>
   <rect fill="#f2f2f2" fill-opacity="0" height="30" id="svg_18" rx="2" ry="2" stroke="#d1d1d1" transform="matrix(1.07899 0 0 1.26479 -10.298 -5.74635) matrix(1 0 0 1 0 1.58129)" width="25" x="122.46" y="21"/>
   <rect fill="#f2f2f2" fill-opacity="0" height="31" id="svg_17" rx="3" ry="3" stroke="#d1d1d1" transform="matrix(1.07899 0 0 1.26479 -10.298 -5.74635) matrix(1 0 0 1 0 1.58129)" width="7" x="147.46" y="20.5"/>
   <rect fill="#f2f2f2" fill-opacity="0" height="30" id="svg_20" rx="2" ry="2" stroke="#d1d1d1" transform="matrix(1.07899 0 0 1.26479 -10.298 -5.74635) matrix(1 0 0 1 0 1.58129)" width="25" x="122.46" y="64"/>
   <rect fill="#f2f2f2" fill-opacity="0" height="31" id="svg_19" rx="3" ry="3" stroke="#d1d1d1" transform="matrix(1.07899 0 0 1.26479 -10.298 -5.74635) matrix(1 0 0 1 0 1.58129)" width="7" x="147.46" y="63.5"/>
  </g>
 </g>
</svg>