<?xml version="1.0"?>
<svg width="640" height="480" xmlns="http://www.w3.org/2000/svg" xmlns:svg="http://www.w3.org/2000/svg">
 <!-- Created with SVG-edit - https://github.com/SVG-Edit/svgedit-->
 <g class="layer">
  <title>Layer 1</title>
  <rect fill="#000000" fill-opacity="0" height="105" id="svg_1" rx="2" ry="2" stroke="#b2b2b2" stroke-width="1.5" width="80" x="42" y="4.54"/>
  <rect fill="#000000" fill-opacity="0" height="30" id="svg_10" rx="2" ry="2" stroke="#b2b2b2" width="25" x="17" y="21"/>
  <rect fill="#000000" fill-opacity="0" height="31" id="svg_9" rx="3" ry="3" stroke="#b2b2b2" width="7" x="10" y="20.5"/>
  <rect fill="#000000" fill-opacity="0" height="30" id="svg_12" rx="2" ry="2" stroke="#b2b2b2" transform="matrix(1 0 0 1 0 0)" width="25" x="15" y="64"/>
  <rect fill="#000000" fill-opacity="0" height="31" id="svg_11" rx="3" ry="3" stroke="#b2b2b2" width="7" x="8" y="63.5"/>
  <rect fill="#000000" fill-opacity="0" height="30" id="svg_18" rx="2" ry="2" stroke="#b2b2b2" width="25" x="124" y="21"/>
  <rect fill="#000000" fill-opacity="0" height="31" id="svg_17" rx="3" ry="3" stroke="#b2b2b2" transform="matrix(1 0 0 1 0 0)" width="7" x="149" y="20.5"/>
  <rect fill="#000000" fill-opacity="0" height="30" id="svg_20" rx="2" ry="2" stroke="#b2b2b2" transform="matrix(1 0 0 1 0 0)" width="25" x="124" y="64"/>
  <rect fill="#000000" fill-opacity="0" height="31" id="svg_19" rx="3" ry="3" stroke="#b2b2b2" transform="matrix(1 0 0 1 0 0)" width="7" x="149" y="63.5"/>
 </g>
</svg>