<?xml version="1.0"?>
<svg width="160" height="110" xmlns="http://www.w3.org/2000/svg" xmlns:svg="http://www.w3.org/2000/svg">
 <!-- Created with SVG-edit - https://github.com/SVG-Edit/svgedit-->
 <g class="layer">
  <title>Layer 1</title>
  <g id="svg_21" transform="translate(9.53846 4.53846) scale(0.665605 0.78022) translate(-9.53846 -4.53846)">
   <rect fill="#000000" fill-opacity="0" height="105" id="svg_1" rx="2" ry="2" stroke="#b2b2b2" stroke-width="2" width="80" x="42" y="4.54"/>
   <rect fill="#000000" fill-opacity="0" height="30" id="svg_10" rx="2" ry="2" stroke="#b2b2b2" stroke-width="2" width="25" x="17" y="21"/>
   <rect fill="#000000" fill-opacity="0" height="31" id="svg_9" rx="3" ry="3" stroke="#b2b2b2" stroke-width="2" width="7" x="10" y="20.5"/>
   <rect fill="#000000" fill-opacity="0" height="30" id="svg_12" rx="2" ry="2" stroke="#b2b2b2" stroke-width="2" width="25" x="16.54" y="64"/>
   <rect fill="#000000" fill-opacity="0" height="31" id="svg_11" rx="3" ry="3" stroke="#b2b2b2" stroke-width="2" width="7" x="9.54" y="63.5"/>
   <rect fill="#000000" fill-opacity="0" height="30" id="svg_18" rx="2" ry="2" stroke="#b2b2b2" stroke-width="2" width="25" x="122.46" y="21"/>
   <rect fill="#000000" fill-opacity="0" height="31" id="svg_17" rx="3" ry="3" stroke="#b2b2b2" stroke-width="2" width="7" x="147.46" y="20.5"/>
   <rect fill="#000000" fill-opacity="0" height="30" id="svg_20" rx="2" ry="2" stroke="#b2b2b2" stroke-width="2" width="25" x="122.46" y="64"/>
   <rect fill="#000000" fill-opacity="0" height="31" id="svg_19" rx="3" ry="3" stroke="#b2b2b2" stroke-width="2" width="7" x="147.46" y="63.5"/>
  </g>
 </g>
</svg>