<?xml version="1.0" encoding="UTF-8"?>
<svg id="Layer_1" data-name="Layer 1" xmlns="http://www.w3.org/2000/svg" viewBox="0 0 5000 5000">
  <rect x="45.45" y="45.91" width="4909.09" height="4900" style="fill: #fff; stroke: #fcfafb; stroke-miterlimit: 10;"/>
  <path d="M1915.65,2040.22c3.22,0,3.22-5,0-5s-3.22,5,0,5h0Z" style="fill: #231f20;"/>
  <g>
    <path d="M1869.36,1325.52c34.04,2.98,67.56,6.88,100.59,11.58l-1.79,47.41c-32.43-4.72-65.37-8.62-98.8-11.62v-47.38ZM1168.03,2725.48h542.48v-1401.02h127.36v1570.83h-669.84v-169.81ZM3130.39,2725.48h669.84v169.81h-669.84v-169.81ZM1741.99,1355.95h64.4v1369.54h-64.4v-1369.54ZM2001.26,1341.85c40.41,6.48,80.04,14.25,118.8,23.32l-11.04,45.94c-35.8-8.37-72.33-15.62-109.55-21.74l1.79-47.52ZM2150.67,1372.62c38.2,9.7,75.54,20.69,111.99,32.88l-19.3,43.43c-33.83-11.21-68.4-21.34-103.74-30.34l11.06-45.98ZM2292.53,1415.84c33.1,11.84,65.45,24.69,97.01,38.59l-22.69,41.73c-30.45-13.32-61.68-25.62-93.6-36.96l19.29-43.36ZM2418.27,1467.46c32.55,15.21,64.24,31.5,95.01,48.89l-26.88,39.17c-29.43-16.5-59.7-31.97-90.76-46.4l22.64-41.66ZM2540.58,1532.22c28.88,17.27,56.93,35.52,84.11,54.7l-28.09,38.08c-26.78-18.86-54.38-36.78-82.86-53.68l26.85-39.1ZM2650.21,1605.39c31.76,23.62,62.3,48.57,91.53,74.88l-32.46,34.36c-27.87-24.99-56.94-48.71-87.16-71.17l28.09-38.06ZM2764.87,1701.62c27.71,26.23,54.21,53.64,79.39,82.32l-36.52,29.94c-23.92-27.13-49.06-53.07-75.32-77.9l32.45-34.36ZM2864.75,1807.86c23.87,28.62,46.47,58.43,67.82,89.32l-40.34,24.5c-20.18-29.01-41.52-56.98-64-83.9l36.52-29.92ZM2950.19,1923.33c20.83,31.8,40.38,64.68,58.54,98.69l-44.36,16.88c-16.95-31.38-35.15-61.75-54.47-91.11l40.29-24.46ZM3023.35,2050.16c15.97,31.74,30.83,64.37,44.47,97.9l-46.45,10.81c-13.02-31.48-27.11-62.12-42.26-91.9l44.24-16.81ZM3079.47,2177.68c12.88,33.85,24.64,68.53,35.11,104.08l-46.59,8.51c-10.39-34.83-22.04-68.75-34.8-101.81l46.27-10.77ZM3123.2,2312.21c8.12,29.9,15.35,60.44,21.76,91.48l-47.12,4.93c-6.26-29.87-13.28-59.19-21.16-87.93l46.52-8.48ZM3151.03,2434.71c6.53,35.08,11.97,70.82,16.3,107.27l-47.4,1.18c-4.26-35.2-9.58-69.7-15.95-103.52l47.05-4.93ZM3170.75,2573.39c3.95,39.45,6.69,79.63,8.04,120.61h-47.26c-1.37-40.62-4.12-80.42-8.11-119.43l47.33-1.18Z" style="fill: #404042; fill-rule: evenodd;"/>
    <path d="M2031.52,3225.97v-4.19h5.77c6.51,0,11.13-2.09,13.85-6.23,1.67-2.49,2.47-8.11,2.47-16.79v-99.81c0-9.62-1.04-15.64-3.18-18.04-2.95-3.32-7.32-5-13.14-5h-5.77v-4.18h62.7c23.04,0,40.55,2.6,52.54,7.83,12.02,5.23,21.67,13.97,28.97,26.18,7.34,12.21,10.97,26.32,10.97,42.29,0,21.5-6.51,39.41-19.53,53.84-14.64,16.09-36.89,24.11-66.82,24.11h-68.82ZM2075.49,3214.65c9.62,2.12,17.64,3.18,24.15,3.18,17.53,0,32.08-6.16,43.68-18.53,11.55-12.34,17.32-29.08,17.32-50.22s-5.77-38.08-17.32-50.33c-11.6-12.28-26.44-18.43-44.61-18.43-6.77,0-14.53,1.09-23.22,3.3v131.03ZM2347.31,3068.23c19.97,0,37.31,7.6,51.92,22.79,14.65,15.21,21.99,34.17,21.99,56.93s-7.37,42.85-22.15,58.33c-14.74,15.46-32.6,23.18-53.59,23.18s-38.97-7.56-53.4-22.65c-14.42-15.07-21.64-34.59-21.64-58.54s8.34-44.45,24.97-59.91c14.46-13.42,31.76-20.13,51.89-20.13h0ZM2345.13,3076.37c-13.72,0-24.78,5.12-33.08,15.35-10.35,12.76-15.55,31.41-15.55,56s5.35,44.55,16.09,58.12c8.27,10.32,19.13,15.48,32.66,15.48,14.46,0,26.36-5.67,35.78-16.95,9.42-11.32,14.13-29.11,14.13-53.47,0-26.41-5.19-46.1-15.55-59.05-8.3-10.32-19.78-15.48-34.48-15.48h0ZM2582.07,3068.23c19.97,0,37.29,7.6,51.91,22.79,14.67,15.21,21.99,34.17,21.99,56.93s-7.37,42.85-22.13,58.33c-14.74,15.46-32.62,23.18-53.59,23.18s-38.97-7.56-53.4-22.65c-14.42-15.07-21.64-34.59-21.64-58.54s8.34-44.45,24.97-59.91c14.46-13.42,31.76-20.13,51.89-20.13h0ZM2579.89,3076.37c-13.72,0-24.78,5.12-33.08,15.35-10.35,12.76-15.55,31.41-15.55,56s5.35,44.55,16.09,58.12c8.27,10.32,19.11,15.48,32.66,15.48,14.46,0,26.36-5.67,35.78-16.95,9.42-11.32,14.11-29.11,14.11-53.47,0-26.41-5.19-46.1-15.55-59.05-8.3-10.32-19.78-15.48-34.46-15.48h0ZM2889.18,3225.97h-41.31l-52.38-72.12c-3.76.16-6.83.23-9.2.23-.97,0-2.02-.04-3.09-.07-1.12-.04-2.26-.09-3.46-.16v44.91c0,9.69,1.04,15.71,3.18,18.02,2.88,3.33,7.18,5,12.92,5h6v4.19h-66.07v-4.19h5.77c6.51,0,11.18-2.12,13.97-6.35,1.58-2.32,2.37-7.91,2.37-16.67v-99.81c0-9.69-1.05-15.71-3.19-18.04-2.95-3.32-7.32-5-13.14-5h-5.77v-4.18h56.15c16.39,0,28.46,1.19,36.22,3.56,7.79,2.4,14.37,6.83,19.78,13.23,5.42,6.39,8.14,14.04,8.14,22.92,0,9.49-3.11,17.71-9.28,24.69-6.19,6.98-15.74,11.9-28.73,14.81l31.92,44.17c7.28,10.16,13.53,16.95,18.76,20.29,5.19,3.37,12.02,5.46,20.44,6.39v4.19ZM2779.75,3146.63c1.44,0,2.67,0,3.72.03,1.05.04,1.9.09,2.56.09,14.53,0,25.51-3.19,32.88-9.55,7.41-6.41,11.09-14.49,11.09-24.36s-2.98-17.44-8.93-23.5c-5.97-6-13.88-9.04-23.69-9.04-4.33,0-10.23.7-17.64,2.11v64.21Z" style="fill: #404042;"/>
  </g>
</svg>